# xmcd CD database file
#
# Track frame offsets:
#	150
#	23295
#	43410
#	52028
#	76025
#	105160
#	121030
#	128035
#	145167
#	163810
#	168658
#	187213
#	195250
#	203548
#	213898
#	229123
#	241275
#
# Disc length: 3569 seconds
#
# Revision: 0
# Processed by: cddbd v1.5.2PL0 Copyright (c) Steve Scherf et al.
# Submitted via: CDex 1.51
#
DISCID=d90def11
DTITLE=松尾泰伸 - for TERRA
DYEAR=2002
DGENRE=New Age
TTITLE0=さくら～RITA
TTITLE1=奇跡の大地
TTITLE2=Silence
TTITLE3=インターミッション～NANGOKU
TTITLE4=悲しみを超えた時空
TTITLE5=空へ
TTITLE6=奄美
TTITLE7=FROZEN LAND
TTITLE8=MOON
TTITLE9=エレジー
TTITLE10=Emotion
TTITLE11=小舟にて
TTITLE12=四季
TTITLE13=青雲の志＃2
TTITLE14=天女 [CD ver.)
TTITLE15=さくら変奏曲～桜吹雪
TTITLE16=いつまでも
EXTD=YEAR: 2002
EXTT0=
EXTT1=
EXTT2=
EXTT3=
EXTT4=
EXTT5=
EXTT6=
EXTT7=
EXTT8=
EXTT9=
EXTT10=
EXTT11=
EXTT12=
EXTT13=
EXTT14=
EXTT15=
EXTT16=
PLAYORDER=
